<?xml version="1.0" standalone="no"?>
<!DOCTYPE svg PUBLIC "-//W3C//DTD SVG 20010904//EN"
 "http://www.w3.org/TR/2001/REC-SVG-20010904/DTD/svg10.dtd">
<svg version="1.0" xmlns="http://www.w3.org/2000/svg"
 width="1152.000000pt" height="1280.000000pt" viewBox="0 0 1152.000000 1280.000000"
 preserveAspectRatio="xMidYMid meet">
<metadata>
Created by potrace 1.15, written by Peter Selinger 2001-2017
</metadata>
<g transform="translate(0.000000,1280.000000) scale(0.100000,-0.100000)"
fill="#000000" stroke="none">
<path d="M1859 12728 c-234 -398 -429 -923 -496 -1333 -24 -151 -25 -474 0
-595 24 -121 62 -232 114 -332 328 -638 1240 -862 2718 -667 88 12 162 23 164
25 7 6 3 8 -105 62 -140 70 -278 151 -414 242 -401 270 -662 541 -800 833 -41
87 -90 241 -90 283 0 7 48 -35 108 -95 207 -208 458 -386 757 -536 218 -110
426 -180 463 -157 13 9 -1 58 -53 182 -242 577 -715 1124 -1387 1603 -226 161
-521 340 -803 488 l-134 70 -42 -73z"/>
<path d="M6805 12424 c-513 -52 -889 -265 -1200 -679 -187 -249 -244 -372
-232 -501 10 -109 81 -230 158 -270 56 -28 85 -19 173 54 321 271 642 467 911
558 155 52 236 66 375 67 173 1 296 -35 427 -124 73 -50 193 -185 193 -216 0
-5 -30 -26 -67 -47 -248 -141 -721 -451 -943 -617 -146 -110 -400 -324 -576
-486 -205 -189 -401 -423 -512 -610 l-51 -88 -383 3 c-375 3 -542 -3 -958 -34
-515 -38 -773 -80 -1145 -186 -589 -168 -1147 -467 -1600 -859 -132 -114 -370
-359 -471 -485 -502 -625 -788 -1351 -880 -2239 -26 -240 -26 -757 0 -980 86
-768 331 -1448 753 -2094 502 -767 1248 -1429 2118 -1877 1168 -602 2515 -828
3935 -659 1679 200 3075 1003 3905 2245 541 811 805 1725 781 2700 -12 483
-62 883 -161 1285 -387 1573 -1440 2585 -3134 3014 -452 115 -907 181 -1505
217 l-108 7 93 94 c346 349 955 773 1592 1108 184 97 240 143 285 235 119 242
-118 794 -467 1084 -250 208 -509 314 -896 366 -87 12 -346 21 -410 14z
m-2257 -3533 c48 -22 102 -70 102 -91 0 -5 -19 -14 -42 -20 -491 -127 -1012
-372 -1428 -672 -164 -118 -188 -137 -173 -138 6 0 81 29 166 65 488 204 887
295 1377 312 167 6 496 -10 558 -26 99 -26 175 -340 262 -1071 46 -392 59
-490 69 -507 4 -7 31 83 60 200 112 448 236 770 377 983 58 88 150 180 190
190 35 9 265 -13 366 -36 210 -46 431 -143 633 -278 173 -116 267 -194 476
-400 l187 -183 28 25 c27 22 29 30 29 93 -2 299 -440 888 -873 1175 -51 34
-90 63 -88 65 16 16 226 35 391 35 451 1 941 -118 1510 -364 188 -81 247 -113
415 -223 172 -112 312 -226 461 -374 568 -567 879 -1350 949 -2386 13 -195 13
-627 -1 -780 -101 -1175 -734 -2229 -1744 -2902 -668 -445 -1436 -697 -2390
-785 -212 -20 -847 -16 -1055 5 -936 98 -1752 384 -2480 870 -265 177 -474
348 -709 580 -675 669 -1090 1473 -1215 2357 -55 385 -45 874 25 1290 86 509
278 999 552 1410 497 744 1300 1295 2227 1529 246 62 384 81 575 78 143 -3
166 -5 213 -26z"/>
<path d="M8000 6364 c-516 -79 -883 -275 -1085 -579 -63 -95 -95 -163 -132
-284 -25 -79 -27 -100 -27 -266 0 -190 13 -271 64 -390 17 -40 23 -46 43 -42
93 24 240 40 410 44 l197 6 0 102 c0 121 10 182 46 273 76 190 209 312 342
312 65 0 99 -17 146 -71 54 -63 78 -136 83 -254 8 -156 -34 -306 -121 -434
-20 -29 -36 -54 -36 -56 0 -2 28 -20 63 -41 107 -64 195 -134 262 -207 l65
-71 33 19 c175 103 383 291 470 427 99 153 131 256 130 418 -1 135 -27 238
-94 373 -119 236 -355 491 -643 695 -66 47 -71 48 -216 26z"/>
<path d="M2694 6037 c-289 -210 -486 -451 -555 -677 -32 -104 -32 -248 0 -340
44 -126 137 -253 263 -357 64 -53 209 -153 221 -153 2 0 35 30 73 67 38 36
101 87 140 113 69 45 71 47 58 71 -8 13 -26 60 -41 104 -24 72 -27 94 -27 220
1 124 4 149 27 221 32 95 86 177 145 219 39 27 52 30 116 30 65 0 76 -3 116
-33 148 -108 217 -400 150 -633 -6 -19 -10 -34 -10 -35 0 -1 51 -4 113 -8 61
-4 157 -13 212 -20 55 -7 103 -11 107 -9 15 8 59 168 69 257 9 71 9 116 0 185
-52 407 -373 693 -891 794 -215 43 -204 43 -286 -16z"/>
<path d="M7745 3398 c-299 -154 -785 -336 -1140 -426 -457 -117 -833 -165
-1285 -164 -357 0 -652 31 -976 102 -125 28 -416 109 -465 129 -13 6 -69 27
-124 47 -118 43 -324 137 -414 188 -35 20 -65 35 -67 33 -7 -7 103 -132 172
-197 266 -249 730 -416 1355 -485 81 -9 277 -19 445 -22 l302 -6 6 -76 c12
-131 47 -321 82 -444 136 -474 392 -763 749 -848 189 -44 443 -22 694 61 307
100 499 237 588 417 l38 77 0 131 c-1 125 -2 134 -36 222 -72 185 -210 375
-420 577 -68 66 -119 121 -113 123 30 10 179 109 254 169 91 73 462 434 445
433 -5 0 -46 -19 -90 -41z m-1269 -917 c60 -178 269 -521 407 -668 38 -41 30
-41 -43 -2 -192 102 -364 322 -480 614 -34 86 -72 216 -65 223 2 3 35 10 72
16 l68 11 8 -60 c4 -32 19 -93 33 -134z"/>
</g>
</svg>
